# xmcd CD database file
#
# Track frame offsets:
#	150
#	14871
#	29592
#	48485
#	62229
#	76754
#	87705
#	102719
#	120579
#	136582
#
# Disc length: 1997 seconds
#
# Revision: 0
# Processed by: cddbd v1.5.1PL2 Copyright (c) Steve Scherf et al.
# Submitted via: CDex 1.51
#
DISCID=8b07cb0a
DTITLE=David Paul - Northstar Guitar
DYEAR=2005
DGENRE=Country
TTITLE0=Secret Admirer
TTITLE1=Missonera
TTITLE2=I'll Fight For Your Love
TTITLE3=Mr Bojangles
TTITLE4=A Father's Love
TTITLE5=It's Showtime
TTITLE6=Beautiful Lady
TTITLE7=The Forgotten War
TTITLE8=Midnight Rendezvous
TTITLE9=Chaplin In New Shoes
EXTD=YEAR: 2005
EXTT0=
EXTT1=
EXTT2=
EXTT3=
EXTT4=
EXTT5=
EXTT6=
EXTT7=
EXTT8=
EXTT9=
PLAYORDER=
